<svg id="visual" viewBox="0 0 1920 1080" width="1920" height="1080" xmlns="http://www.w3.org/2000/svg" xmlns:xlink="http://www.w3.org/1999/xlink" version="1.1"><rect x="0" y="0" width="1920" height="1080" fill="#181818"></rect><path d="M1312 1080L1326.7 1054.3C1341.3 1028.7 1370.7 977.3 1382.5 925.8C1394.3 874.3 1388.7 822.7 1370.8 771.2C1353 719.7 1323 668.3 1301.7 617C1280.3 565.7 1267.7 514.3 1286.7 463C1305.7 411.7 1356.3 360.3 1373.7 308.8C1391 257.3 1375 205.7 1375.8 154.2C1376.7 102.7 1394.3 51.3 1403.2 25.7L1412 0L1920 0L1920 25.7C1920 51.3 1920 102.7 1920 154.2C1920 205.7 1920 257.3 1920 308.8C1920 360.3 1920 411.7 1920 463C1920 514.3 1920 565.7 1920 617C1920 668.3 1920 719.7 1920 771.2C1920 822.7 1920 874.3 1920 925.8C1920 977.3 1920 1028.7 1920 1054.3L1920 1080Z" fill="#1d1d1d"></path><path d="M1594 1080L1589.8 1054.3C1585.7 1028.7 1577.3 977.3 1557 925.8C1536.7 874.3 1504.3 822.7 1510.2 771.2C1516 719.7 1560 668.3 1562 617C1564 565.7 1524 514.3 1526.3 463C1528.7 411.7 1573.3 360.3 1561.8 308.8C1550.3 257.3 1482.7 205.7 1475.5 154.2C1468.3 102.7 1521.7 51.3 1548.3 25.7L1575 0L1920 0L1920 25.7C1920 51.3 1920 102.7 1920 154.2C1920 205.7 1920 257.3 1920 308.8C1920 360.3 1920 411.7 1920 463C1920 514.3 1920 565.7 1920 617C1920 668.3 1920 719.7 1920 771.2C1920 822.7 1920 874.3 1920 925.8C1920 977.3 1920 1028.7 1920 1054.3L1920 1080Z" fill="#008e9a"></path><path d="M1650 1080L1671.8 1054.3C1693.7 1028.7 1737.3 977.3 1760.3 925.8C1783.3 874.3 1785.7 822.7 1749.5 771.2C1713.3 719.7 1638.7 668.3 1617.3 617C1596 565.7 1628 514.3 1629.3 463C1630.7 411.7 1601.3 360.3 1614.2 308.8C1627 257.3 1682 205.7 1713.7 154.2C1745.3 102.7 1753.7 51.3 1757.8 25.7L1762 0L1920 0L1920 25.7C1920 51.3 1920 102.7 1920 154.2C1920 205.7 1920 257.3 1920 308.8C1920 360.3 1920 411.7 1920 463C1920 514.3 1920 565.7 1920 617C1920 668.3 1920 719.7 1920 771.2C1920 822.7 1920 874.3 1920 925.8C1920 977.3 1920 1028.7 1920 1054.3L1920 1080Z" fill="#1d1d1d"></path></svg>