<svg id="visual" viewBox="0 0 1920 1080" width="1920" height="1080" xmlns="http://www.w3.org/2000/svg" xmlns:xlink="http://www.w3.org/1999/xlink" version="1.1"><rect x="0" y="0" width="1920" height="1080" fill="#1d1d1d"></rect><path d="M0 848L45.7 847.7C91.3 847.3 182.7 846.7 274.2 832C365.7 817.3 457.3 788.7 548.8 761C640.3 733.3 731.7 706.7 823 720.5C914.3 734.3 1005.7 788.7 1097 821.2C1188.3 853.7 1279.7 864.3 1371.2 865.3C1462.7 866.3 1554.3 857.7 1645.8 824.3C1737.3 791 1828.7 733 1874.3 704L1920 675L1920 1081L1874.3 1081C1828.7 1081 1737.3 1081 1645.8 1081C1554.3 1081 1462.7 1081 1371.2 1081C1279.7 1081 1188.3 1081 1097 1081C1005.7 1081 914.3 1081 823 1081C731.7 1081 640.3 1081 548.8 1081C457.3 1081 365.7 1081 274.2 1081C182.7 1081 91.3 1081 45.7 1081L0 1081Z" fill="#181818" stroke-linecap="round" stroke-linejoin="miter"></path></svg>