<svg id="visual" viewBox="0 0 1920 1080" width="1920" height="1080" xmlns="http://www.w3.org/2000/svg" xmlns:xlink="http://www.w3.org/1999/xlink" version="1.1"><rect x="0" y="0" width="1920" height="1080" fill="#1d1d1d"></rect><defs><linearGradient id="grad1_0" x1="43.8%" y1="0%" x2="100%" y2="100%"><stop offset="14.444444444444446%" stop-color="#064147" stop-opacity="1"></stop><stop offset="85.55555555555554%" stop-color="#064147" stop-opacity="1"></stop></linearGradient></defs><defs><linearGradient id="grad1_1" x1="43.8%" y1="0%" x2="100%" y2="100%"><stop offset="14.444444444444446%" stop-color="#064147" stop-opacity="1"></stop><stop offset="85.55555555555554%" stop-color="#1a2f31" stop-opacity="1"></stop></linearGradient></defs><defs><linearGradient id="grad1_2" x1="43.8%" y1="0%" x2="100%" y2="100%"><stop offset="14.444444444444446%" stop-color="#1d1d1d" stop-opacity="1"></stop><stop offset="85.55555555555554%" stop-color="#1a2f31" stop-opacity="1"></stop></linearGradient></defs><defs><linearGradient id="grad2_0" x1="0%" y1="0%" x2="56.3%" y2="100%"><stop offset="14.444444444444446%" stop-color="#064147" stop-opacity="1"></stop><stop offset="85.55555555555554%" stop-color="#064147" stop-opacity="1"></stop></linearGradient></defs><defs><linearGradient id="grad2_1" x1="0%" y1="0%" x2="56.3%" y2="100%"><stop offset="14.444444444444446%" stop-color="#1a2f31" stop-opacity="1"></stop><stop offset="85.55555555555554%" stop-color="#064147" stop-opacity="1"></stop></linearGradient></defs><defs><linearGradient id="grad2_2" x1="0%" y1="0%" x2="56.3%" y2="100%"><stop offset="14.444444444444446%" stop-color="#1a2f31" stop-opacity="1"></stop><stop offset="85.55555555555554%" stop-color="#1d1d1d" stop-opacity="1"></stop></linearGradient></defs><g transform="translate(1920, 0)"><path d="M0 810C-106.9 798.7 -213.7 787.3 -310 748.3C-406.2 709.4 -491.9 642.8 -566.4 566.4C-640.8 490 -704.1 403.7 -742.8 307.7C-781.5 211.6 -795.8 105.8 -810 0L0 0Z" fill="#1c2627"></path><path d="M0 540C-71.2 532.4 -142.5 524.9 -206.6 498.9C-270.8 472.9 -328 428.5 -377.6 377.6C-427.2 326.7 -469.4 269.1 -495.2 205.1C-521 141.1 -530.5 70.5 -540 0L0 0Z" fill="#14383c"></path><path d="M0 270C-35.6 266.2 -71.2 262.4 -103.3 249.4C-135.4 236.5 -164 214.3 -188.8 188.8C-213.6 163.3 -234.7 134.6 -247.6 102.6C-260.5 70.5 -265.3 35.3 -270 0L0 0Z" fill="#064147"></path></g><g transform="translate(0, 1080)"><path d="M0 -810C106.5 -799.1 213 -788.3 310 -748.3C407 -708.4 494.6 -639.3 558.6 -558.6C622.7 -477.9 663.2 -385.5 701.2 -290.5C739.2 -195.4 774.6 -97.7 810 0L0 0Z" fill="#1c2627"></path><path d="M0 -540C71 -532.8 142 -525.5 206.6 -498.9C271.3 -472.3 329.7 -426.2 372.4 -372.4C415.1 -318.6 442.2 -257 467.5 -193.6C492.8 -130.3 516.4 -65.1 540 0L0 0Z" fill="#14383c"></path><path d="M0 -270C35.5 -266.4 71 -262.8 103.3 -249.4C135.7 -236.1 164.9 -213.1 186.2 -186.2C207.6 -159.3 221.1 -128.5 233.7 -96.8C246.4 -65.1 258.2 -32.6 270 0L0 0Z" fill="#064147"></path></g></svg>